<?xml version="1.0" encoding="UTF-8"?>
<!DOCTYPE svg PUBLIC "-//W3C//DTD SVG 1.1//EN" "http://www.w3.org/Graphics/SVG/1.1/DTD/svg11.dtd">
<svg xmlns="http://www.w3.org/2000/svg" version="1.1" width="287px" height="176px" style="shape-rendering:geometricPrecision; text-rendering:geometricPrecision; image-rendering:optimizeQuality; fill-rule:evenodd; clip-rule:evenodd" xmlns:xlink="http://www.w3.org/1999/xlink">
<g><path style="opacity:1" fill="#fefeff" d="M -0.5,-0.5 C 95.1667,-0.5 190.833,-0.5 286.5,-0.5C 286.5,58.1667 286.5,116.833 286.5,175.5C 190.833,175.5 95.1667,175.5 -0.5,175.5C -0.5,116.833 -0.5,58.1667 -0.5,-0.5 Z"/></g>
<g><path style="opacity:1" fill="#0b89ff" d="M 16.5,79.5 C 26.8333,79.5 37.1667,79.5 47.5,79.5C 47.5,82.1667 47.5,84.8333 47.5,87.5C 37.1667,87.5 26.8333,87.5 16.5,87.5C 16.5,84.8333 16.5,82.1667 16.5,79.5 Z"/></g>
<g><path style="opacity:1" fill="#128aff" d="M 70.5,110.5 C 68.0521,109.527 65.3854,109.194 62.5,109.5C 62.5,115.167 62.5,120.833 62.5,126.5C 59.5,126.5 56.5,126.5 53.5,126.5C 53.5,110.833 53.5,95.1667 53.5,79.5C 61.1739,79.3336 68.8406,79.5003 76.5,80C 86.6663,83.1575 90.4996,89.9909 88,100.5C 86.6311,104.246 84.1311,106.912 80.5,108.5C 83.7547,114.008 86.7547,119.675 89.5,125.5C 86.2156,126.657 82.8823,126.824 79.5,126C 76.347,120.852 73.347,115.686 70.5,110.5 Z"/></g>
<g><path style="opacity:1" fill="#0c89ff" d="M 94.5,79.5 C 102.174,79.3336 109.841,79.5003 117.5,80C 128.1,84.1179 131.6,91.6179 128,102.5C 125.685,106.817 122.185,109.65 117.5,111C 112.845,111.499 108.179,111.666 103.5,111.5C 103.5,116.5 103.5,121.5 103.5,126.5C 100.5,126.5 97.5,126.5 94.5,126.5C 94.5,110.833 94.5,95.1667 94.5,79.5 Z"/></g>
<g><path style="opacity:1" fill="#0889ff" d="M 145.5,98.5 C 145.44,97.9569 145.107,97.6236 144.5,97.5C 143.502,107.144 143.168,116.81 143.5,126.5C 140.5,126.5 137.5,126.5 134.5,126.5C 134.5,110.833 134.5,95.1667 134.5,79.5C 137.572,79.1826 140.572,79.5159 143.5,80.5C 149.805,89.9714 156.305,99.3047 163,108.5C 163.5,98.8391 163.666,89.1724 163.5,79.5C 166.833,79.5 170.167,79.5 173.5,79.5C 173.5,95.1667 173.5,110.833 173.5,126.5C 170.482,126.665 167.482,126.498 164.5,126C 158.033,116.891 151.7,107.725 145.5,98.5 Z"/></g>
<g><path style="opacity:1" fill="#1d8bff" d="M 263.5,83.5 C 263.5,86.1667 263.5,88.8333 263.5,91.5C 265.833,91.5 268.167,91.5 270.5,91.5C 270.5,93.8333 270.5,96.1667 270.5,98.5C 268.167,98.5 265.833,98.5 263.5,98.5C 263.334,104.842 263.5,111.175 264,117.5C 265.763,118.944 267.763,119.944 270,120.5C 270.495,122.473 270.662,124.473 270.5,126.5C 264.394,128.625 259.228,127.291 255,122.5C 253.599,114.585 253.099,106.585 253.5,98.5C 252.167,98.5 250.833,98.5 249.5,98.5C 249.5,96.1667 249.5,93.8333 249.5,91.5C 250.833,91.5 252.167,91.5 253.5,91.5C 254.473,89.0521 254.806,86.3854 254.5,83.5C 257.5,83.5 260.5,83.5 263.5,83.5 Z"/></g>
<g><path style="opacity:1" fill="#81bfff" d="M 263.5,83.5 C 260.5,83.5 257.5,83.5 254.5,83.5C 254.806,86.3854 254.473,89.0521 253.5,91.5C 253.5,88.5 253.5,85.5 253.5,82.5C 257.042,82.1872 260.375,82.5206 263.5,83.5 Z"/></g>
<g><path style="opacity:1" fill="#b4daff" d="M 16.5,79.5 C 16.5,82.1667 16.5,84.8333 16.5,87.5C 26.8333,87.5 37.1667,87.5 47.5,87.5C 37.0131,88.4944 26.3464,88.8278 15.5,88.5C 15.19,85.2869 15.5233,82.2869 16.5,79.5 Z"/></g>
<g><path style="opacity:1" fill="#f9fcff" d="M 63.5,87.5 C 67.6049,87.2338 71.6049,87.7338 75.5,89C 79.4101,92.9247 79.4101,96.9247 75.5,101C 71.5138,101.499 67.5138,101.666 63.5,101.5C 63.5,96.8333 63.5,92.1667 63.5,87.5 Z"/></g>
<g><path style="opacity:1" fill="#f2f7ff" d="M 103.5,87.5 C 109.694,86.4058 114.861,88.0725 119,92.5C 120.027,96.1799 119.194,99.3466 116.5,102C 112.3,103.367 107.967,103.867 103.5,103.5C 103.5,98.1667 103.5,92.8333 103.5,87.5 Z"/></g>
<g><path style="opacity:1" fill="#198bff" d="M 191.5,90.5 C 205.724,90.3895 212.391,97.3895 211.5,111.5C 203.833,111.5 196.167,111.5 188.5,111.5C 189.028,119.114 193.028,121.614 200.5,119C 203.769,116.356 207.435,115.856 211.5,117.5C 209.938,122.563 206.604,125.73 201.5,127C 183.708,128.536 176.208,120.369 179,102.5C 181.769,96.8947 185.936,92.8947 191.5,90.5 Z"/></g>
<g><path style="opacity:1" fill="#138aff" d="M 214.5,92.5 C 217.64,91.3592 220.973,91.1925 224.5,92C 226.54,95.9144 228.707,99.7478 231,103.5C 232.787,99.4234 234.954,95.59 237.5,92C 240.833,91.3333 244.167,91.3333 247.5,92C 243.656,97.3537 240.322,103.02 237.5,109C 240.827,114.651 244.16,120.317 247.5,126C 244.167,126.667 240.833,126.667 237.5,126C 235.46,122.086 233.293,118.252 231,114.5C 228.833,118.167 226.667,121.833 224.5,125.5C 221.167,126.833 217.833,126.833 214.5,125.5C 217.635,119.869 220.968,114.369 224.5,109C 221.267,103.353 217.933,97.8532 214.5,92.5 Z"/></g>
<g><path style="opacity:1" fill="#7bb7ff" d="M 45.5,99.5 C 35.8333,99.5 26.1667,99.5 16.5,99.5C 16.5,108.5 16.5,117.5 16.5,126.5C 15.5064,117.348 15.1731,108.015 15.5,98.5C 25.6806,98.1726 35.6806,98.506 45.5,99.5 Z"/></g>
<g><path style="opacity:1" fill="#82b9ff" d="M 145.5,98.5 C 144.833,107.833 144.167,117.167 143.5,126.5C 143.168,116.81 143.502,107.144 144.5,97.5C 145.107,97.6236 145.44,97.9569 145.5,98.5 Z"/></g>
<g><path style="opacity:1" fill="#f7fbff" d="M 191.5,98.5 C 198.086,96.7152 201.753,99.0485 202.5,105.5C 197.833,105.5 193.167,105.5 188.5,105.5C 188.15,102.547 189.15,100.213 191.5,98.5 Z"/></g>
<g><path style="opacity:1" fill="#0288ff" d="M 45.5,99.5 C 45.5,101.833 45.5,104.167 45.5,106.5C 38.8333,106.5 32.1667,106.5 25.5,106.5C 25.5,110.5 25.5,114.5 25.5,118.5C 32.8333,118.5 40.1667,118.5 47.5,118.5C 47.5,121.167 47.5,123.833 47.5,126.5C 37.1667,126.5 26.8333,126.5 16.5,126.5C 16.5,117.5 16.5,108.5 16.5,99.5C 26.1667,99.5 35.8333,99.5 45.5,99.5 Z"/></g>
<g><path style="opacity:1" fill="#65b0ff" d="M 70.5,110.5 C 68.1667,110.5 65.8333,110.5 63.5,110.5C 63.8214,116.026 63.4881,121.36 62.5,126.5C 62.5,120.833 62.5,115.167 62.5,109.5C 65.3854,109.194 68.0521,109.527 70.5,110.5 Z"/></g>
<g><path style="opacity:1" fill="#beddff" d="M 45.5,106.5 C 39.3554,107.49 33.0221,107.823 26.5,107.5C 26.5,110.833 26.5,114.167 26.5,117.5C 33.6866,117.175 40.6866,117.509 47.5,118.5C 40.1667,118.5 32.8333,118.5 25.5,118.5C 25.5,114.5 25.5,110.5 25.5,106.5C 32.1667,106.5 38.8333,106.5 45.5,106.5 Z"/></g>
</svg>
