<?xml version="1.0" encoding="UTF-8"?>
<!DOCTYPE svg PUBLIC "-//W3C//DTD SVG 1.1//EN" "http://www.w3.org/Graphics/SVG/1.1/DTD/svg11.dtd">
<svg xmlns="http://www.w3.org/2000/svg" version="1.1" width="2435px" height="528px" style="shape-rendering:geometricPrecision; text-rendering:geometricPrecision; image-rendering:optimizeQuality; fill-rule:evenodd; clip-rule:evenodd" xmlns:xlink="http://www.w3.org/1999/xlink">
<g><path style="opacity:0.992" fill="#fefffe" d="M 1772.5,-0.5 C 1798.83,-0.5 1825.17,-0.5 1851.5,-0.5C 1851.5,173.167 1851.5,346.833 1851.5,520.5C 1825.17,520.5 1798.83,520.5 1772.5,520.5C 1772.5,346.833 1772.5,173.167 1772.5,-0.5 Z"/></g>
<g><path style="opacity:0.976" fill="#fefffe" d="M 1940.5,0.5 C 1967.5,0.5 1994.5,0.5 2021.5,0.5C 2021.5,28.1667 2021.5,55.8333 2021.5,83.5C 1994.5,83.5 1967.5,83.5 1940.5,83.5C 1940.5,55.8333 1940.5,28.1667 1940.5,0.5 Z"/></g>
<g><path style="opacity:0.986" fill="#fefffe" d="M 1003.5,17.5 C 1037.17,17.1668 1070.84,17.5001 1104.5,18.5C 1029.38,99.7855 953.717,180.619 877.5,261C 954.352,347.018 1031.02,433.185 1107.5,519.5C 1073.17,520.667 1038.84,520.833 1004.5,520C 932.667,440.167 860.833,360.333 789,280.5C 788.5,360.499 788.333,440.499 788.5,520.5C 761.5,520.5 734.5,520.5 707.5,520.5C 707.5,353.5 707.5,186.5 707.5,19.5C 734.5,19.5 761.5,19.5 788.5,19.5C 788.333,95.5007 788.5,171.501 789,247.5C 860.338,170.662 931.838,93.9958 1003.5,17.5 Z"/></g>
<g><path style="opacity:0.981" fill="#c314e2" d="M -0.5,19.5 C 5.83333,19.5 12.1667,19.5 18.5,19.5C 98.5,100.167 178.833,180.5 259.5,260.5C 256.704,263.797 253.704,266.964 250.5,270C 333.68,353.014 416.68,436.18 499.5,519.5C 496.232,520.487 492.898,520.82 489.5,520.5C 326.882,356.215 163.548,192.548 -0.5,29.5C -0.5,26.1667 -0.5,22.8333 -0.5,19.5 Z"/></g>
<g><path style="opacity:0.997" fill="#c611e1" d="M 18.5,19.5 C 23.1667,19.5 27.8333,19.5 32.5,19.5C 110.167,97.8333 188.167,175.833 266.5,253.5C 264.5,256.167 262.167,258.5 259.5,260.5C 178.833,180.5 98.5,100.167 18.5,19.5 Z"/></g>
<g><path style="opacity:0.997" fill="#c711df" d="M 32.5,19.5 C 34.5,19.5 36.5,19.5 38.5,19.5C 115.167,96.8333 192.167,173.833 269.5,250.5C 268.833,251.833 267.833,252.833 266.5,253.5C 188.167,175.833 110.167,97.8333 32.5,19.5 Z"/></g>
<g><path style="opacity:0.997" fill="#c811de" d="M 38.5,19.5 C 40.1667,19.5 41.8333,19.5 43.5,19.5C 119.5,95.8333 195.5,172.167 271.5,248.5C 271.167,249.5 270.5,250.167 269.5,250.5C 192.167,173.833 115.167,96.8333 38.5,19.5 Z"/></g>
<g><path style="opacity:0.996" fill="#c813dc" d="M 43.5,19.5 C 46.5,19.5 49.5,19.5 52.5,19.5C 126.833,94.5 201.5,169.167 276.5,243.5C 275.167,245.5 273.5,247.167 271.5,248.5C 195.5,172.167 119.5,95.8333 43.5,19.5 Z"/></g>
<g><path style="opacity:0.996" fill="#c914d7" d="M 52.5,19.5 C 59.5,19.5 66.5,19.5 73.5,19.5C 143.784,91.4513 214.784,162.785 286.5,233.5C 283.5,237.167 280.167,240.5 276.5,243.5C 201.5,169.167 126.833,94.5 52.5,19.5 Z"/></g>
<g><path style="opacity:0.996" fill="#ca17d1" d="M 73.5,19.5 C 80.1667,19.5 86.8333,19.5 93.5,19.5C 161.167,87.5 228.833,155.5 296.5,223.5C 293.5,227.167 290.167,230.5 286.5,233.5C 214.784,162.785 143.784,91.4513 73.5,19.5 Z"/></g>
<g><path style="opacity:0.996" fill="#cb19ca" d="M 93.5,19.5 C 101.5,19.5 109.5,19.5 117.5,19.5C 180.451,84.1179 244.118,148.118 308.5,211.5C 304.833,215.833 300.833,219.833 296.5,223.5C 228.833,155.5 161.167,87.5 93.5,19.5 Z"/></g>
<g><path style="opacity:0.996" fill="#cc1cc4" d="M 117.5,19.5 C 124.167,19.5 130.833,19.5 137.5,19.5C 197.118,80.7845 257.451,141.451 318.5,201.5C 315.5,205.167 312.167,208.5 308.5,211.5C 244.118,148.118 180.451,84.1179 117.5,19.5 Z"/></g>
<g><path style="opacity:0.996" fill="#ce1ebf" d="M 137.5,19.5 C 141.833,19.5 146.167,19.5 150.5,19.5C 208.5,78.1667 266.833,136.5 325.5,194.5C 323.5,197.167 321.167,199.5 318.5,201.5C 257.451,141.451 197.118,80.7845 137.5,19.5 Z"/></g>
<g><path style="opacity:0.996" fill="#ce1fbd" d="M 150.5,19.5 C 151.5,19.5 152.5,19.5 153.5,19.5C 211.167,77.5 268.833,135.5 326.5,193.5C 326.5,194.167 326.167,194.5 325.5,194.5C 266.833,136.5 208.5,78.1667 150.5,19.5 Z"/></g>
<g><path style="opacity:0.995" fill="#ce20bc" d="M 153.5,19.5 C 154.833,19.5 156.167,19.5 157.5,19.5C 214.5,76.8333 271.5,134.167 328.5,191.5C 328.167,192.5 327.5,193.167 326.5,193.5C 268.833,135.5 211.167,77.5 153.5,19.5 Z"/></g>
<g><path style="opacity:0.995" fill="#cf21b8" d="M 157.5,19.5 C 164.167,19.5 170.833,19.5 177.5,19.5C 231.167,73.5 284.833,127.5 338.5,181.5C 335.5,185.167 332.167,188.5 328.5,191.5C 271.5,134.167 214.5,76.8333 157.5,19.5 Z"/></g>
<g><path style="opacity:0.995" fill="#d023b1" d="M 177.5,19.5 C 185.5,19.5 193.5,19.5 201.5,19.5C 251.167,69.5 300.833,119.5 350.5,169.5C 346.833,173.833 342.833,177.833 338.5,181.5C 284.833,127.5 231.167,73.5 177.5,19.5 Z"/></g>
<g><path style="opacity:0.994" fill="#d125ae" d="M 201.5,19.5 C 202.5,19.5 203.5,19.5 204.5,19.5C 253.5,69.1667 302.833,118.5 352.5,167.5C 352.167,168.5 351.5,169.167 350.5,169.5C 300.833,119.5 251.167,69.5 201.5,19.5 Z"/></g>
<g><path style="opacity:0.995" fill="#d226aa" d="M 204.5,19.5 C 210.167,19.5 215.833,19.5 221.5,19.5C 267.833,66.1667 314.167,112.833 360.5,159.5C 358.167,162.5 355.5,165.167 352.5,167.5C 302.833,118.5 253.5,69.1667 204.5,19.5 Z"/></g>
<g><path style="opacity:0.994" fill="#d328a5" d="M 221.5,19.5 C 228.167,19.5 234.833,19.5 241.5,19.5C 284.5,62.8333 327.5,106.167 370.5,149.5C 367.5,153.167 364.167,156.5 360.5,159.5C 314.167,112.833 267.833,66.1667 221.5,19.5 Z"/></g>
<g><path style="opacity:0.994" fill="#d42aa1" d="M 241.5,19.5 C 243.5,19.5 245.5,19.5 247.5,19.5C 289.5,61.8333 331.5,104.167 373.5,146.5C 372.833,147.833 371.833,148.833 370.5,149.5C 327.5,106.167 284.5,62.8333 241.5,19.5 Z"/></g>
<g><path style="opacity:0.993" fill="#d52a9f" d="M 247.5,19.5 C 249.833,19.5 252.167,19.5 254.5,19.5C 295.167,60.8333 336.167,101.833 377.5,142.5C 376.5,144.167 375.167,145.5 373.5,146.5C 331.5,104.167 289.5,61.8333 247.5,19.5 Z"/></g>
<g><path style="opacity:0.994" fill="#d52b9d" d="M 254.5,19.5 C 256.833,19.5 259.167,19.5 261.5,19.5C 301.167,59.5 340.833,99.5 380.5,139.5C 379.833,140.833 378.833,141.833 377.5,142.5C 336.167,101.833 295.167,60.8333 254.5,19.5 Z"/></g>
<g><path style="opacity:0.993" fill="#d62d99" d="M 261.5,19.5 C 269.5,19.5 277.5,19.5 285.5,19.5C 321.167,55.5 356.833,91.5 392.5,127.5C 388.833,131.833 384.833,135.833 380.5,139.5C 340.833,99.5 301.167,59.5 261.5,19.5 Z"/></g>
<g><path style="opacity:0.992" fill="#d73092" d="M 285.5,19.5 C 292.167,19.5 298.833,19.5 305.5,19.5C 337.833,52.1667 370.167,84.8333 402.5,117.5C 399.5,121.167 396.167,124.5 392.5,127.5C 356.833,91.5 321.167,55.5 285.5,19.5 Z"/></g>
<g><path style="opacity:0.991" fill="#d8328c" d="M 305.5,19.5 C 312.167,19.5 318.833,19.5 325.5,19.5C 354.5,48.8333 383.5,78.1667 412.5,107.5C 409.5,111.167 406.167,114.5 402.5,117.5C 370.167,84.8333 337.833,52.1667 305.5,19.5 Z"/></g>
<g><path style="opacity:0.99" fill="#d93486" d="M 325.5,19.5 C 331.5,19.5 337.5,19.5 343.5,19.5C 369.5,45.8333 395.5,72.1667 421.5,98.5C 418.833,101.833 415.833,104.833 412.5,107.5C 383.5,78.1667 354.5,48.8333 325.5,19.5 Z"/></g>
<g><path style="opacity:0.988" fill="#da3683" d="M 343.5,19.5 C 344.5,19.5 345.5,19.5 346.5,19.5C 371.833,45.5 397.5,71.1667 423.5,96.5C 423.167,97.5 422.5,98.1667 421.5,98.5C 395.5,72.1667 369.5,45.8333 343.5,19.5 Z"/></g>
<g><path style="opacity:0.989" fill="#db3780" d="M 346.5,19.5 C 352.5,19.5 358.5,19.5 364.5,19.5C 386.833,42.5 409.5,65.1667 432.5,87.5C 429.833,90.8333 426.833,93.8333 423.5,96.5C 397.5,71.1667 371.833,45.5 346.5,19.5 Z"/></g>
<g><path style="opacity:0.989" fill="#dc387d" d="M 364.5,19.5 C 366.167,19.5 367.833,19.5 369.5,19.5C 391.167,41.5 412.833,63.5 434.5,85.5C 434.167,86.5 433.5,87.1667 432.5,87.5C 409.5,65.1667 386.833,42.5 364.5,19.5 Z"/></g>
<g><path style="opacity:0.987" fill="#dc3a79" d="M 369.5,19.5 C 376.167,19.5 382.833,19.5 389.5,19.5C 407.833,38.1667 426.167,56.8333 444.5,75.5C 441.5,79.1667 438.167,82.5 434.5,85.5C 412.833,63.5 391.167,41.5 369.5,19.5 Z"/></g>
<g><path style="opacity:0.984" fill="#dd3c73" d="M 389.5,19.5 C 396.5,19.5 403.5,19.5 410.5,19.5C 410.369,20.2389 410.536,20.9056 411,21.5C 425.702,36.0348 440.202,50.7015 454.5,65.5C 451.5,69.1667 448.167,72.5 444.5,75.5C 426.167,56.8333 407.833,38.1667 389.5,19.5 Z"/></g>
<g><path style="opacity:0.983" fill="#df3d6f" d="M 410.5,19.5 C 412.167,19.5 413.833,19.5 415.5,19.5C 429.5,33.8333 443.5,48.1667 457.5,62.5C 456.833,63.8333 455.833,64.8333 454.5,65.5C 440.202,50.7015 425.702,36.0348 411,21.5C 410.536,20.9056 410.369,20.2389 410.5,19.5 Z"/></g>
<g><path style="opacity:0.979" fill="#df3f6c" d="M 415.5,19.5 C 420.5,19.5 425.5,19.5 430.5,19.5C 441.833,31.5 453.5,43.1667 465.5,54.5C 463.167,57.5 460.5,60.1667 457.5,62.5C 443.5,48.1667 429.5,33.8333 415.5,19.5 Z"/></g>
<g><path style="opacity:0.977" fill="#e04069" d="M 430.5,19.5 C 433.5,19.5 436.5,19.5 439.5,19.5C 449.5,29.8333 459.5,40.1667 469.5,50.5C 468.5,52.1667 467.167,53.5 465.5,54.5C 453.5,43.1667 441.833,31.5 430.5,19.5 Z"/></g>
<g><path style="opacity:0.97" fill="#e14265" d="M 439.5,19.5 C 444.5,19.5 449.5,19.5 454.5,19.5C 461.443,27.7797 468.776,35.7797 476.5,43.5C 474.5,46.1667 472.167,48.5 469.5,50.5C 459.5,40.1667 449.5,29.8333 439.5,19.5 Z"/></g>
<g><path style="opacity:0.96" fill="#e14361" d="M 454.5,19.5 C 458.5,19.5 462.5,19.5 466.5,19.5C 471.833,25.5 477.5,31.1667 483.5,36.5C 481.5,39.1667 479.167,41.5 476.5,43.5C 468.776,35.7797 461.443,27.7797 454.5,19.5 Z"/></g>
<g><path style="opacity:0.948" fill="#e2445e" d="M 466.5,19.5 C 469.167,19.5 471.833,19.5 474.5,19.5C 478.5,24.1667 482.833,28.5 487.5,32.5C 486.5,34.1667 485.167,35.5 483.5,36.5C 477.5,31.1667 471.833,25.5 466.5,19.5 Z"/></g>
<g><path style="opacity:0.904" fill="#e3465a" d="M 474.5,19.5 C 481.167,19.5 487.833,19.5 494.5,19.5C 495.167,20.8333 496.167,21.8333 497.5,22.5C 494.5,26.1667 491.167,29.5 487.5,32.5C 482.833,28.5 478.5,24.1667 474.5,19.5 Z"/></g>
<g><path style="opacity:0.664" fill="#e34856" d="M 494.5,19.5 C 496.288,19.2148 497.955,19.5481 499.5,20.5C 499.145,21.5223 498.478,22.189 497.5,22.5C 496.167,21.8333 495.167,20.8333 494.5,19.5 Z"/></g>
<g><path style="opacity:0.999" fill="#c017e3" d="M -0.5,29.5 C 163.548,192.548 326.882,356.215 489.5,520.5C 482.833,520.5 476.167,520.5 469.5,520.5C 313.167,363.5 156.5,206.833 -0.5,50.5C -0.5,43.5 -0.5,36.5 -0.5,29.5 Z"/></g>
<g><path style="opacity:0.998" fill="#bd1ae5" d="M -0.5,50.5 C 156.5,206.833 313.167,363.5 469.5,520.5C 461.5,520.5 453.5,520.5 445.5,520.5C 297.167,371.5 148.5,222.833 -0.5,74.5C -0.5,66.5 -0.5,58.5 -0.5,50.5 Z"/></g>
<g><path style="opacity:0.99" fill="#fefffe" d="M 1550.5,61.5 C 1576.83,61.5 1603.17,61.5 1629.5,61.5C 1629.5,92.5 1629.5,123.5 1629.5,154.5C 1657.5,154.5 1685.5,154.5 1713.5,154.5C 1713.5,176.5 1713.5,198.5 1713.5,220.5C 1685.5,220.5 1657.5,220.5 1629.5,220.5C 1629.33,285.501 1629.5,350.501 1630,415.5C 1632.51,432.081 1641.34,443.581 1656.5,450C 1675.11,451.448 1693.78,451.948 1712.5,451.5C 1712.5,474.833 1712.5,498.167 1712.5,521.5C 1687.5,521.667 1662.5,521.5 1637.5,521C 1583.55,513.711 1554.05,482.878 1549,428.5C 1548.5,359.167 1548.33,289.834 1548.5,220.5C 1526.5,220.5 1504.5,220.5 1482.5,220.5C 1482.5,198.5 1482.5,176.5 1482.5,154.5C 1498.21,154.882 1513.87,154.382 1529.5,153C 1542.16,149.674 1549,141.508 1550,128.5C 1550.5,106.169 1550.67,83.8358 1550.5,61.5 Z"/></g>
<g><path style="opacity:0.998" fill="#b91de6" d="M -0.5,74.5 C 148.5,222.833 297.167,371.5 445.5,520.5C 435.5,520.5 425.5,520.5 415.5,520.5C 277.167,381.5 138.5,242.833 -0.5,104.5C -0.5,94.5 -0.5,84.5 -0.5,74.5 Z"/></g>
<g><path style="opacity:0.998" fill="#b61fe8" d="M -0.5,104.5 C 138.5,242.833 277.167,381.5 415.5,520.5C 414.5,520.5 413.5,520.5 412.5,520.5C 275.167,382.5 137.5,244.833 -0.5,107.5C -0.5,106.5 -0.5,105.5 -0.5,104.5 Z"/></g>
<g><path style="opacity:0.998" fill="#b620e8" d="M -0.5,107.5 C 137.5,244.833 275.167,382.5 412.5,520.5C 408.833,520.5 405.167,520.5 401.5,520.5C 267.833,386.167 133.833,252.167 -0.5,118.5C -0.5,114.833 -0.5,111.167 -0.5,107.5 Z"/></g>
<g><path style="opacity:0.998" fill="#b223e9" d="M -0.5,118.5 C 133.833,252.167 267.833,386.167 401.5,520.5C 388.5,520.5 375.5,520.5 362.5,520.5C 242.215,398.548 121.215,277.215 -0.5,156.5C -0.5,143.833 -0.5,131.167 -0.5,118.5 Z"/></g>
<g><path style="opacity:0.988" fill="#fefffe" d="M 1301.5,527.5 C 1287.17,527.5 1272.83,527.5 1258.5,527.5C 1206.73,521.533 1163.89,498.866 1130,459.5C 1099.08,416.172 1086.42,367.839 1092,314.5C 1099.87,239.33 1138.37,186.83 1207.5,157C 1265.74,136.9 1322.07,141.234 1376.5,170C 1417.52,195.136 1444.68,230.97 1458,277.5C 1473.08,332.907 1467.75,386.241 1442,437.5C 1409.94,490.358 1363.11,520.358 1301.5,527.5 Z M 1268.5,217.5 C 1304.06,214.957 1333.22,227.29 1356,254.5C 1374.91,278.409 1383.75,305.742 1382.5,336.5C 1383.17,376.009 1369.17,409.175 1340.5,436C 1313.49,456.268 1283.49,462.602 1250.5,455C 1215.54,444.71 1191.37,422.543 1178,388.5C 1168.85,358.03 1168.18,327.364 1176,296.5C 1190.51,250.806 1221.35,224.473 1268.5,217.5 Z"/></g>
<g><path style="opacity:0.986" fill="#fefffe" d="M 2434.5,262.5 C 2434.5,347.833 2434.5,433.167 2434.5,518.5C 2408.17,518.5 2381.83,518.5 2355.5,518.5C 2355.67,441.833 2355.5,365.166 2355,288.5C 2353.37,258.608 2339.87,236.108 2314.5,221C 2298.21,213.901 2281.21,211.567 2263.5,214C 2230.67,219.481 2207.84,237.648 2195,268.5C 2191.41,278.208 2189.07,288.208 2188,298.5C 2187.5,372.499 2187.33,446.499 2187.5,520.5C 2160.83,520.5 2134.17,520.5 2107.5,520.5C 2107.5,397.833 2107.5,275.167 2107.5,152.5C 2133.17,152.5 2158.83,152.5 2184.5,152.5C 2184.33,170.503 2184.5,188.503 2185,206.5C 2207.15,171.405 2238.98,151.239 2280.5,146C 2320.43,140.649 2356.43,149.982 2388.5,174C 2414.28,198.069 2429.62,227.569 2434.5,262.5 Z"/></g>
<g><path style="opacity:0.996" fill="#fefffe" d="M 1940.5,154.5 C 1966.83,154.5 1993.17,154.5 2019.5,154.5C 2019.5,276.833 2019.5,399.167 2019.5,521.5C 1993.17,521.5 1966.83,521.5 1940.5,521.5C 1940.5,399.167 1940.5,276.833 1940.5,154.5 Z"/></g>
<g><path style="opacity:0.998" fill="#af26ea" d="M -0.5,156.5 C 121.215,277.215 242.215,398.548 362.5,520.5C 358.167,520.5 353.833,520.5 349.5,520.5C 233.549,402.882 116.882,285.882 -0.5,169.5C -0.5,165.167 -0.5,160.833 -0.5,156.5 Z"/></g>
<g><path style="opacity:0.998" fill="#ac29ec" d="M -0.5,169.5 C 116.882,285.882 233.549,402.882 349.5,520.5C 337.833,520.5 326.167,520.5 314.5,520.5C 209.833,415.167 104.833,310.167 -0.5,205.5C -0.5,193.5 -0.5,181.5 -0.5,169.5 Z"/></g>
<g><path style="opacity:0.998" fill="#a92ced" d="M -0.5,205.5 C 104.833,310.167 209.833,415.167 314.5,520.5C 312.833,520.5 311.167,520.5 309.5,520.5C 206.5,416.833 103.167,313.5 -0.5,210.5C -0.5,208.833 -0.5,207.167 -0.5,205.5 Z"/></g>
<g><path style="opacity:0.998" fill="#a92cee" d="M -0.5,210.5 C 103.167,313.5 206.5,416.833 309.5,520.5C 308.167,520.5 306.833,520.5 305.5,520.5C 203.833,418.167 101.833,316.167 -0.5,214.5C -0.5,213.167 -0.5,211.833 -0.5,210.5 Z"/></g>
<g><path style="opacity:0.997" fill="#a52eee" d="M -0.5,214.5 C 101.833,316.167 203.833,418.167 305.5,520.5C 292.167,520.5 278.833,520.5 265.5,520.5C 177.167,431.5 88.5,342.833 -0.5,254.5C -0.5,241.167 -0.5,227.833 -0.5,214.5 Z"/></g>
<g><path style="opacity:0.997" fill="#a232f0" d="M -0.5,254.5 C 88.5,342.833 177.167,431.5 265.5,520.5C 264.167,520.5 262.833,520.5 261.5,520.5C 174.5,432.833 87.1667,345.5 -0.5,258.5C -0.5,257.167 -0.5,255.833 -0.5,254.5 Z"/></g>
<g><path style="opacity:0.997" fill="#9f34f1" d="M -0.5,258.5 C 87.1667,345.5 174.5,432.833 261.5,520.5C 246.5,520.5 231.5,520.5 216.5,520.5C 144.882,447.215 72.5489,374.549 -0.5,302.5C -0.5,287.833 -0.5,273.167 -0.5,258.5 Z"/></g>
<g><path style="opacity:0.996" fill="#9b37f3" d="M -0.5,302.5 C 72.5489,374.549 144.882,447.215 216.5,520.5C 213.5,520.5 210.5,520.5 207.5,520.5C 138.882,450.215 69.549,380.549 -0.5,311.5C -0.5,308.5 -0.5,305.5 -0.5,302.5 Z"/></g>
<g><path style="opacity:0.997" fill="#9a39f3" d="M -0.5,311.5 C 69.549,380.549 138.882,450.215 207.5,520.5C 206.167,520.5 204.833,520.5 203.5,520.5C 135.833,452.167 67.8333,384.167 -0.5,316.5C -0.5,314.833 -0.5,313.167 -0.5,311.5 Z"/></g>
<g><path style="opacity:0.996" fill="#983bf4" d="M -0.5,316.5 C 67.8333,384.167 135.833,452.167 203.5,520.5C 190.833,520.5 178.167,520.5 165.5,520.5C 110.5,464.833 55.1667,409.5 -0.5,354.5C -0.5,341.833 -0.5,329.167 -0.5,316.5 Z"/></g>
<g><path style="opacity:0.995" fill="#943ef6" d="M -0.5,354.5 C 55.1667,409.5 110.5,464.833 165.5,520.5C 163.167,520.5 160.833,520.5 158.5,520.5C 106.216,466.549 53.2159,413.216 -0.5,360.5C -0.5,358.5 -0.5,356.5 -0.5,354.5 Z"/></g>
<g><path style="opacity:0.995" fill="#9240f7" d="M -0.5,360.5 C 53.2159,413.216 106.216,466.549 158.5,520.5C 146.167,520.5 133.833,520.5 121.5,520.5C 81.1667,479.5 40.5,438.833 -0.5,398.5C -0.5,385.833 -0.5,373.167 -0.5,360.5 Z"/></g>
<g><path style="opacity:0.993" fill="#8e43f8" d="M -0.5,398.5 C 40.5,438.833 81.1667,479.5 121.5,520.5C 117.5,520.5 113.5,520.5 109.5,520.5C 73.5498,482.883 36.8831,445.883 -0.5,409.5C -0.5,405.833 -0.5,402.167 -0.5,398.5 Z"/></g>
<g><path style="opacity:0.993" fill="#8d45f9" d="M -0.5,409.5 C 36.8831,445.883 73.5498,482.883 109.5,520.5C 105.167,520.5 100.833,520.5 96.5,520.5C 64.8833,487.216 32.55,454.55 -0.5,422.5C -0.5,418.167 -0.5,413.833 -0.5,409.5 Z"/></g>
<g><path style="opacity:0.992" fill="#8a47fa" d="M -0.5,422.5 C 32.55,454.55 64.8833,487.216 96.5,520.5C 89.8333,520.5 83.1667,520.5 76.5,520.5C 51.5505,493.883 25.8838,467.883 -0.5,442.5C -0.5,435.833 -0.5,429.167 -0.5,422.5 Z"/></g>
<g><path style="opacity:0.989" fill="#8849fb" d="M -0.5,442.5 C 25.8838,467.883 51.5505,493.883 76.5,520.5C 71.1667,520.5 65.8333,520.5 60.5,520.5C 40.8845,499.217 20.5511,478.55 -0.5,458.5C -0.5,453.167 -0.5,447.833 -0.5,442.5 Z"/></g>
<g><path style="opacity:0.985" fill="#854cfc" d="M -0.5,458.5 C 20.5511,478.55 40.8845,499.217 60.5,520.5C 51.1667,520.5 41.8333,520.5 32.5,520.5C 21.8333,509.167 10.8333,498.167 -0.5,487.5C -0.5,477.833 -0.5,468.167 -0.5,458.5 Z"/></g>
<g><path style="opacity:0.961" fill="#814ffd" d="M -0.5,487.5 C 10.8333,498.167 21.8333,509.167 32.5,520.5C 22.8333,520.5 13.1667,520.5 3.5,520.5C 2.5,518.833 1.16667,517.5 -0.5,516.5C -0.5,506.833 -0.5,497.167 -0.5,487.5 Z"/></g>
<g><path style="opacity:0.7" fill="#7f52ff" d="M -0.5,516.5 C 1.16667,517.5 2.5,518.833 3.5,520.5C 2.16667,520.5 0.833333,520.5 -0.5,520.5C -0.5,519.167 -0.5,517.833 -0.5,516.5 Z"/></g>
</svg>
